# xmcd
#
# Track frame offsets: 
#        150
#        13945
#        26888
#        43755
#        56553
#        66623
#        84766
#        95091
#        110286
#        128079
#        144787
#        163987
#        176410
#        195102
#
# Disc length: 2778 seconds
#
# Revision: 0
# Processed by: cddbd v1.5.2PL0 Copyright (c) Steve Scherf et al.
# Submitted via: ExactAudioCopyFreeDBPlugin 1.0
#
DISCID=bb0ad80e
DTITLE=varios - As Melhores da Antares-MPB vol. 2
DYEAR=1900
DGENRE=MPB
TTITLE0=Aguas de marco
TTITLE1=As rosas nao falam
TTITLE2=Casa no campo
TTITLE3=Cantiros
TTITLE4=Pela luz dos olhos teus
TTITLE5=Chega de saudade
TTITLE6=Luiza
TTITLE7=Brasil pandeiro
TTITLE8=Aquarela
TTITLE9=Eu e a brisa
TTITLE10=Romaria
TTITLE11=Carinhoso
TTITLE12=Faltando um pedaco
TTITLE13=Brasil
EXTD=
EXTT0=
EXTT1=
EXTT2=
EXTT3=
EXTT4=
EXTT5=
EXTT6=
EXTT7=
EXTT8=
EXTT9=
EXTT10=
EXTT11=
EXTT12=
EXTT13=
PLAYORDER=
